<svg width="960" height="540" viewBox="0 0 960 540" fill="none" xmlns="http://www.w3.org/2000/svg" role="img" aria-label="职业竞争力工作流">
  <rect width="960" height="540" rx="28" fill="#F4EFE6"/>
  <path d="M84 92C206 46 352 62 455 126C579 203 705 180 854 108" stroke="#C75B39" stroke-width="3" stroke-linecap="round"/>
  <path d="M90 416C225 357 352 365 478 407C599 447 718 459 866 397" stroke="#1F6F68" stroke-width="3" stroke-linecap="round"/>
  <g fill="#111827">
    <text x="72" y="84" font-family="Georgia, serif" font-size="28" font-weight="700">Career Flywheel</text>
    <text x="72" y="116" font-family="Arial, sans-serif" font-size="15">cashflow -> learning -> docs -> content -> opportunities</text>
  </g>
  <g>
    <rect x="82" y="180" width="150" height="86" rx="12" fill="#FFFFFF" stroke="#111827" stroke-width="2"/>
    <text x="112" y="214" font-family="Arial, sans-serif" font-size="18" font-weight="700" fill="#111827">稳定工作</text>
    <text x="112" y="242" font-family="Arial, sans-serif" font-size="14" fill="#4B5563">现金流与秩序</text>
  </g>
  <g>
    <rect x="278" y="180" width="150" height="86" rx="12" fill="#FFFFFF" stroke="#111827" stroke-width="2"/>
    <text x="308" y="214" font-family="Arial, sans-serif" font-size="18" font-weight="700" fill="#111827">持续学习</text>
    <text x="308" y="242" font-family="Arial, sans-serif" font-size="14" fill="#4B5563">补足短板</text>
  </g>
  <g>
    <rect x="474" y="180" width="150" height="86" rx="12" fill="#FFFFFF" stroke="#111827" stroke-width="2"/>
    <text x="504" y="214" font-family="Arial, sans-serif" font-size="18" font-weight="700" fill="#111827">技术文档</text>
    <text x="504" y="242" font-family="Arial, sans-serif" font-size="14" fill="#4B5563">沉淀资产</text>
  </g>
  <g>
    <rect x="670" y="180" width="150" height="86" rx="12" fill="#FFFFFF" stroke="#111827" stroke-width="2"/>
    <text x="700" y="214" font-family="Arial, sans-serif" font-size="18" font-weight="700" fill="#111827">公开内容</text>
    <text x="700" y="242" font-family="Arial, sans-serif" font-size="14" fill="#4B5563">曝光与信任</text>
  </g>
  <g>
    <rect x="354" y="332" width="250" height="86" rx="12" fill="#111827"/>
    <text x="405" y="366" font-family="Arial, sans-serif" font-size="20" font-weight="700" fill="#FFFFFF">机会反馈</text>
    <text x="405" y="394" font-family="Arial, sans-serif" font-size="14" fill="#D1D5DB">求职 / 项目 / 询价 / 面试</text>
  </g>
  <path d="M232 223H278" stroke="#111827" stroke-width="2" stroke-linecap="round"/>
  <path d="M428 223H474" stroke="#111827" stroke-width="2" stroke-linecap="round"/>
  <path d="M624 223H670" stroke="#111827" stroke-width="2" stroke-linecap="round"/>
  <path d="M744 266C728 326 673 374 604 375" stroke="#111827" stroke-width="2" stroke-linecap="round"/>
  <path d="M354 375C231 368 157 321 157 266" stroke="#111827" stroke-width="2" stroke-linecap="round"/>
</svg>
